<svg width="19" height="16" viewBox="0 0 19 16" fill="none" xmlns="http://www.w3.org/2000/svg">
<path d="M2.3912 15.3267C2.05169 15.4625 1.72916 15.4326 1.4236 15.2371C1.11805 15.0422 0.965271 14.758 0.965271 14.3846V10.5906C0.965271 10.3529 1.03317 10.1407 1.16897 9.95401C1.30478 9.76728 1.49151 9.64846 1.72916 9.59753L9.11342 7.7642L1.72916 5.93087C1.49151 5.87994 1.30478 5.76111 1.16897 5.57438C1.03317 5.38766 0.965271 5.17546 0.965271 4.93781V1.14383C0.965271 0.770372 1.11805 0.485865 1.4236 0.29031C1.72916 0.0954333 2.05169 0.0658959 2.3912 0.201698L18.0764 6.82207C18.5008 7.0088 18.713 7.32284 18.713 7.7642C18.713 8.20556 18.5008 8.5196 18.0764 8.70633L2.3912 15.3267Z" fill="white"/>
</svg>
